<svg xmlns="http://www.w3.org/2000/svg" viewBox="0 0 750 471" width="750" height="471">
  <rect width="750" height="471" rx="40" fill="#1A1F71"/>
  <g fill="#FFFFFF">
    <path d="M278.198 334.228L311.583 138.473H363.775L330.388 334.228H278.198ZM524.307 142.687C513.195 138.896 494.288 134.686 468.441 134.686C414.359 134.686 375.998 162.916 375.685 202.495C375.373 232.395 403.185 249.002 424.358 259.449C446.156 270.271 453.265 277.379 453.265 287.201C452.953 301.876 435.721 308.359 419.739 308.359C396.077 308.359 383.731 304.568 365.449 296.835L357.716 293.044L349.358 340.711C361.704 346.569 384.418 351.729 408.08 352.041C465.9 352.041 503.636 324.436 504.261 281.968C504.573 258.824 490.523 241.592 459.748 227.542C440.841 217.095 429.104 209.987 429.104 199.228C429.729 189.406 441.466 179.584 466.525 179.584C487.073 179.272 502.386 183.688 514.107 187.479L519.892 189.718L528.25 142.687ZM661.83 138.473H620.613C608.267 138.473 598.757 142.264 593.597 154.61L512.493 334.228H570.313L582.034 302.501H652.633L661.205 334.228H711.287L661.83 138.473ZM597.507 264.609L626.471 188.854L642.453 264.609H597.507ZM445.531 138.473L394.15 334.228H342.583L313.619 168.149C311.38 157.077 309.766 151.219 302.033 147.428C289.062 141.57 268.514 136.41 250.232 134.171L251.482 138.473H318.154C329.891 138.473 340.344 145.581 343.208 159.631L365.449 267.473L445.531 138.473Z"/>
  </g>
</svg>